<svg xmlns="http://www.w3.org/2000/svg" width="11.049" height="11.049" viewBox="0 0 11.049 11.049">
  <g id="copyright" transform="translate(0 0)">
    <path id="Path_21" data-name="Path 21" d="M5.525,0a5.525,5.525,0,1,0,5.525,5.525A5.531,5.531,0,0,0,5.525,0Zm0,10.331a4.806,4.806,0,1,1,4.806-4.806A4.811,4.811,0,0,1,5.525,10.331Z"/>
    <path id="Path_22" data-name="Path 22" d="M82.44,76.866a.359.359,0,0,0-.5.109,1.876,1.876,0,1,1-.026-2.058.359.359,0,0,0,.6-.4,2.595,2.595,0,1,0,.036,2.848A.359.359,0,0,0,82.44,76.866Z" transform="translate(-74.662 -70.441)"/>
  </g>
</svg>
