<svg id="hand" xmlns="http://www.w3.org/2000/svg" width="24.825" height="24.833" viewBox="0 0 24.825 24.833">
  <path id="Path_5" data-name="Path 5" d="M219.553,331.022a.485.485,0,1,0-.686,0A.486.486,0,0,0,219.553,331.022Zm0,0" transform="translate(-208.141 -314.179)" fill="#ffe9e9"/>
  <path id="Path_6" data-name="Path 6" d="M188.449,5.334A5.334,5.334,0,1,0,193.783,0,5.34,5.34,0,0,0,188.449,5.334Zm9.7,0A4.364,4.364,0,1,1,193.783.97,4.369,4.369,0,0,1,198.147,5.334Zm0,0" transform="translate(-179.333)" fill="#ffe9e9"/>
  <path id="Path_7" data-name="Path 7" d="M6.086,226.71a.485.485,0,0,0,.684,0L9.121,224.4a1.465,1.465,0,0,0,.345-1.5l.506-.488a1.446,1.446,0,0,1,1.01-.408h6.446a4.341,4.341,0,0,0,3.044-1.237c.034-.033-.256.308,4.4-5.253a1.94,1.94,0,0,0-2.951-2.517l-2.861,2.941a1.949,1.949,0,0,0-1.508-.722H12.142a6.256,6.256,0,0,0-2.428-.485,6,6,0,0,0-5.468,3.1,1.448,1.448,0,0,0-1.3.4L.643,220.541a.485.485,0,0,0,0,.684Zm3.628-11.016a5.293,5.293,0,0,1,2.135.444.484.484,0,0,0,.194.041h5.506a.97.97,0,1,1,0,1.939H13.593a.485.485,0,0,0,0,.97h3.956a1.937,1.937,0,0,0,1.922-2.193c2.768-2.845,3.158-3.245,3.175-3.265a.97.97,0,1,1,1.481,1.253l-4.349,5.2a3.376,3.376,0,0,1-2.35.945H10.982a2.411,2.411,0,0,0-1.683.68l-.412.4-3.8-3.8a5.006,5.006,0,0,1,4.626-2.613Zm-6.078,3.218a.484.484,0,0,1,.6-.068c.084.051-.157-.168,4.2,4.183a.486.486,0,0,1,0,.683l-2,1.974-4.764-4.8Zm0,0" transform="translate(-0.501 -202.021)" fill="#ffe9e9"/>
  <path id="Path_8" data-name="Path 8" d="M266.788,40.473v.568a1.455,1.455,0,0,0,.485,2.826.485.485,0,1,1,0,.97.877.877,0,0,1-.63-.367.485.485,0,1,0-.742.624,2.011,2.011,0,0,0,.887.631v.566a.485.485,0,0,0,.97,0v-.568a1.455,1.455,0,0,0-.485-2.826.485.485,0,0,1,0-.97.778.778,0,0,1,.524.253.485.485,0,0,0,.674-.7,1.874,1.874,0,0,0-.714-.446v-.565a.485.485,0,1,0-.97,0Zm0,0" transform="translate(-252.92 -38.049)" fill="#ffe9e9"/>
</svg>
