<svg id="linkedin-logo" xmlns="http://www.w3.org/2000/svg" width="13.471" height="12.872" viewBox="0 0 13.471 12.872">
  <path id="LinkedIn" d="M13.47,17.45v4.98H10.583V17.783c0-1.167-.418-1.964-1.463-1.964a1.58,1.58,0,0,0-1.481,1.056,1.976,1.976,0,0,0-.1.7v4.85H4.655s.039-7.87,0-8.685H7.543v1.231L7.524,15h.019v-.028a2.867,2.867,0,0,1,2.6-1.435C12.046,13.541,13.47,14.782,13.47,17.45ZM1.634,9.558a1.505,1.505,0,1,0-.038,3h.019a1.506,1.506,0,1,0,.019-3ZM.172,22.43H3.059V13.745H.172Z" transform="translate(0 -9.558)"/>
</svg>
