<svg id="placeholder" xmlns="http://www.w3.org/2000/svg" width="16.922" height="24.16" viewBox="0 0 16.922 24.16">
  <path id="Path_9" data-name="Path 9" d="M23.646,12a3.089,3.089,0,1,0,3.089,3.089A3.093,3.093,0,0,0,23.646,12Zm0,5.295a2.206,2.206,0,1,1,2.206-2.206A2.209,2.209,0,0,1,23.646,17.295Z" transform="translate(-15.106 -6.705)" fill="#fff"/>
  <path id="Path_10" data-name="Path 10" d="M22.647,2.478a8.461,8.461,0,0,0-11.966,0,9.638,9.638,0,0,0-.8,11.892l6.779,9.79,6.769-9.776A9.641,9.641,0,0,0,22.647,2.478Zm.07,11.39L16.664,22.61,10.6,13.855a8.708,8.708,0,0,1,.7-10.752,7.578,7.578,0,0,1,10.718,0A8.711,8.711,0,0,1,22.717,13.868Z" transform="translate(-8.203 0)" fill="#fff"/>
</svg>
