<svg xmlns="http://www.w3.org/2000/svg" width="28.801" height="24.548" viewBox="0 0 28.801 24.548">
  <path id="scroll-with-text" d="M3.863,39.754c-.093,0-2.283-.014-3.2-1.206A4.737,4.737,0,0,1,.04,35.454a.28.28,0,0,1,.277-.242H7.949V20.57a5.37,5.37,0,0,1,5.364-5.364H26.389A2.415,2.415,0,0,1,28.8,17.618v1.791a.28.28,0,0,1-.28.28H21.586a4.956,4.956,0,0,0-.1.985l.025,14.663A4.815,4.815,0,0,1,20.252,38.6a3.557,3.557,0,0,1-2.6,1.152c-.111,0-.221,0-.331-.014a.275.275,0,0,1-.069.009ZM.573,35.772A3.909,3.909,0,0,0,1.1,38.206c.754.977,2.74.988,2.76.988l11.85-.008a3.463,3.463,0,0,1-.659-.551l-.023-.025q-.05-.054-.1-.11a4.09,4.09,0,0,1-.926-2.334c-.018-.153-.028-.288-.034-.4H.573Zm16.086,3.26a3.013,3.013,0,0,0,3.181-.81,4.257,4.257,0,0,0,1.115-2.883L20.93,20.675a5.475,5.475,0,0,1,3.046-4.91H13.312a4.81,4.81,0,0,0-4.8,4.8V35.208h5.744a.28.28,0,0,1,.28.282V35.5a5.162,5.162,0,0,0,.027.523,4.058,4.058,0,0,0,.793,2.106A3.887,3.887,0,0,0,16.658,39.032Zm5.075-19.9h6.508V17.618a1.855,1.855,0,0,0-1.853-1.853,4.908,4.908,0,0,0-4.656,3.364ZM19.361,33.1H9.828a.28.28,0,0,1,0-.559h9.533a.28.28,0,1,1,0,.559Zm-1.515-2.01h-6.5a.28.28,0,0,1,0-.559h6.5a.28.28,0,0,1,0,.559Zm1.515-2.01H9.828a.28.28,0,1,1,0-.559h9.533a.28.28,0,1,1,0,.559Zm-1.515-2.01h-6.5a.28.28,0,1,1,0-.559h6.5a.28.28,0,0,1,0,.559Zm1.515-2.01H9.828a.28.28,0,0,1,0-.559h9.533a.28.28,0,1,1,0,.559Zm-.443-2.01H10.271a.28.28,0,1,1,0-.559h8.647a.28.28,0,0,1,0,.559Zm.443-2.01H9.828a.28.28,0,0,1,0-.559h9.533a.28.28,0,1,1,0,.559Z" transform="translate(0 -15.206)" fill="#fff"/>
</svg>
