<svg xmlns="http://www.w3.org/2000/svg" width="18.215" height="13.835" viewBox="0 0 18.215 13.835">
  <path id="message-closed-envelope" d="M16.053,45.945H2.162A2.123,2.123,0,0,0,0,48.021V57.7A2.123,2.123,0,0,0,2.162,59.78H16.053A2.123,2.123,0,0,0,18.215,57.7V48.021A2.123,2.123,0,0,0,16.053,45.945Zm0,12H2.162c-.175,0-.329-.114-.329-.243V49.3l6.283,5.3a.716.716,0,0,0,.461.169H9.638a.716.716,0,0,0,.461-.169l6.283-5.3v8.4C16.382,57.833,16.228,57.947,16.053,57.947ZM9.107,52.954,3,47.778H15.218Z" transform="translate(0 -45.945)"/>
</svg>
