<svg xmlns="http://www.w3.org/2000/svg" width="15.842" height="12.872" viewBox="0 0 15.842 12.872">
  <path id="twitter_1_" data-name="twitter (1)" d="M15.842,49.524a6.771,6.771,0,0,1-1.871.513,3.23,3.23,0,0,0,1.429-1.8,6.491,6.491,0,0,1-2.059.786,3.248,3.248,0,0,0-5.618,2.221,3.344,3.344,0,0,0,.075.741,9.193,9.193,0,0,1-6.694-3.4,3.249,3.249,0,0,0,1,4.341,3.207,3.207,0,0,1-1.467-.4v.036a3.263,3.263,0,0,0,2.6,3.191,3.242,3.242,0,0,1-.852.107,2.871,2.871,0,0,1-.615-.055A3.279,3.279,0,0,0,4.8,58.074,6.526,6.526,0,0,1,.777,59.459,6.086,6.086,0,0,1,0,59.414a9.143,9.143,0,0,0,4.982,1.457,9.18,9.18,0,0,0,9.244-9.242c0-.144,0-.282-.012-.42A6.479,6.479,0,0,0,15.842,49.524Z" transform="translate(0 -48)"/>
</svg>
